<svg xmlns="http://www.w3.org/2000/svg" width="400" height="220" viewBox="0 0 400 220">
  <defs>
    <linearGradient id="sky" x1="0" y1="0" x2="0" y2="1">
      <stop offset="0" stop-color="#cdeede"/>
      <stop offset="1" stop-color="#eafaf1"/>
    </linearGradient>
    <linearGradient id="bld" x1="0" y1="0" x2="0" y2="1">
      <stop offset="0" stop-color="#ffffff"/>
      <stop offset="1" stop-color="#f1f6f3"/>
    </linearGradient>
  </defs>
  <rect width="400" height="220" fill="url(#sky)"/>
  <rect x="70" y="72" width="260" height="118" fill="url(#bld)" stroke="#d7e3dd"/>
  <rect x="60" y="60" width="280" height="20" fill="#07c160"/>
  <g fill="#ffffff" opacity="0.85">
    <rect x="60" y="60" width="28" height="20"/>
    <rect x="116" y="60" width="28" height="20"/>
    <rect x="172" y="60" width="28" height="20"/>
    <rect x="228" y="60" width="28" height="20"/>
    <rect x="284" y="60" width="28" height="20"/>
    <rect x="340" y="60" width="20" height="20"/>
  </g>
  <rect x="92" y="92" width="216" height="30" rx="6" fill="#07c160"/>
  <text x="200" y="113" text-anchor="middle" font-family="PingFang SC, Microsoft YaHei, sans-serif" font-size="15" fill="#ffffff" font-weight="700">华氏诊所(杨浦店)</text>
  <rect x="100" y="134" width="42" height="56" fill="#dff3e8" stroke="#cfe6dc"/>
  <rect x="258" y="134" width="42" height="56" fill="#dff3e8" stroke="#cfe6dc"/>
  <g fill="#07c160">
    <rect x="193" y="150" width="14" height="5"/>
    <rect x="197.5" y="145.5" width="5" height="14"/>
  </g>
  <rect x="0" y="190" width="400" height="30" fill="#e4ece8"/>
</svg>
